<mxfile host="www.draw.io" modified="2019-10-16T10:34:03.736Z" agent="Mozilla/5.0 (Macintosh; Intel Mac OS X 10_14_6) AppleWebKit/537.36 (KHTML, like Gecko) Chrome/77.0.3865.90 Safari/537.36" etag="C0XlvwVcebJOW3l9VpmC" version="12.1.1" type="github" pages="1">
  <diagram id="7jFQWEKBJWH08LF9sNS9" name="第 1 页">
    <mxGraphModel dx="984" dy="532" grid="1" gridSize="10" guides="1" tooltips="1" connect="1" arrows="1" fold="1" page="1" pageScale="1" pageWidth="827" pageHeight="1169" math="0" shadow="0">
      <root>
        <mxCell id="0"/>
        <mxCell id="1" parent="0"/>
        <mxCell id="YWXzUzA2li_S0hEGCGYV-29" value="" style="whiteSpace=wrap;html=1;aspect=fixed;fillColor=#f9f7ed;strokeColor=#36393d;" parent="1" vertex="1">
          <mxGeometry x="79" y="3" width="717" height="717" as="geometry"/>
        </mxCell>
        <mxCell id="PL_q6k4NAZZa_5ycfTa1-30" style="edgeStyle=none;rounded=0;orthogonalLoop=1;jettySize=auto;html=1;startArrow=classic;startFill=1;endArrow=none;endFill=0;exitX=0;exitY=0;exitDx=0;exitDy=0;entryX=0.5;entryY=1;entryDx=0;entryDy=0;" parent="1" source="PL_q6k4NAZZa_5ycfTa1-1" target="YWXzUzA2li_S0hEGCGYV-28" edge="1">
          <mxGeometry relative="1" as="geometry">
            <mxPoint x="66" y="130" as="targetPoint"/>
          </mxGeometry>
        </mxCell>
        <mxCell id="HUFBvN-yXKdZDNxcfpUM-18" value="&lt;span style=&quot;text-align: left&quot;&gt;创建：任务创建完成&lt;/span&gt;&lt;br style=&quot;text-align: left&quot;&gt;&lt;span style=&quot;text-align: left&quot;&gt;指派：任务已指派&lt;/span&gt;" style="text;html=1;resizable=0;points=[];align=center;verticalAlign=middle;labelBackgroundColor=none;rotation=90;" parent="PL_q6k4NAZZa_5ycfTa1-30" vertex="1" connectable="0">
          <mxGeometry x="0.2479" relative="1" as="geometry">
            <mxPoint x="22" y="12" as="offset"/>
          </mxGeometry>
        </mxCell>
        <mxCell id="PL_q6k4NAZZa_5ycfTa1-1" value="未启动" style="ellipse;whiteSpace=wrap;html=1;aspect=fixed;fillColor=#d5e8d4;strokeColor=#82b366;" parent="1" vertex="1">
          <mxGeometry x="95" y="251" width="56" height="56" as="geometry"/>
        </mxCell>
        <mxCell id="PL_q6k4NAZZa_5ycfTa1-27" value="" style="rounded=0;orthogonalLoop=1;jettySize=auto;html=1;entryX=0;entryY=0.5;entryDx=0;entryDy=0;fillColor=#60a917;strokeColor=#2D7600;exitX=1;exitY=0;exitDx=0;exitDy=0;strokeWidth=2;" parent="1" source="PL_q6k4NAZZa_5ycfTa1-3" target="PL_q6k4NAZZa_5ycfTa1-4" edge="1">
          <mxGeometry x="-0.1674" y="42" relative="1" as="geometry">
            <mxPoint as="offset"/>
          </mxGeometry>
        </mxCell>
        <mxCell id="PL_q6k4NAZZa_5ycfTa1-35" value="&lt;span style=&quot;font-size: 11px&quot;&gt;检验：所有文件&lt;/span&gt;&lt;br style=&quot;font-size: 11px&quot;&gt;&lt;span style=&quot;font-size: 11px&quot;&gt;&amp;nbsp; &amp;nbsp; &amp;nbsp; &amp;nbsp; &amp;nbsp; 标注完成&lt;/span&gt;" style="text;html=1;resizable=0;points=[];align=center;verticalAlign=middle;labelBackgroundColor=none;rotation=337;direction=south;" parent="PL_q6k4NAZZa_5ycfTa1-27" vertex="1" connectable="0">
          <mxGeometry x="-0.1687" y="2" relative="1" as="geometry">
            <mxPoint x="24" y="14" as="offset"/>
          </mxGeometry>
        </mxCell>
        <mxCell id="PL_q6k4NAZZa_5ycfTa1-3" value="标注中" style="ellipse;whiteSpace=wrap;html=1;aspect=fixed;fillColor=#d5e8d4;strokeColor=#82b366;" parent="1" vertex="1">
          <mxGeometry x="184" y="100" width="56" height="56" as="geometry"/>
        </mxCell>
        <mxCell id="PL_q6k4NAZZa_5ycfTa1-4" value="完成标注" style="ellipse;whiteSpace=wrap;html=1;aspect=fixed;fillColor=#d5e8d4;strokeColor=#82b366;" parent="1" vertex="1">
          <mxGeometry x="399.5" y="11" width="56" height="56" as="geometry"/>
        </mxCell>
        <mxCell id="ddIMEOaLe6l60YSl90KJ-6" style="edgeStyle=none;rounded=0;orthogonalLoop=1;jettySize=auto;html=1;entryX=0;entryY=1;entryDx=0;entryDy=0;startArrow=none;startFill=0;endArrow=classic;endFill=1;dashed=1;strokeWidth=2;fillColor=#b1ddf0;strokeColor=#10739e;" parent="1" source="PL_q6k4NAZZa_5ycfTa1-5" target="PL_q6k4NAZZa_5ycfTa1-7" edge="1">
          <mxGeometry relative="1" as="geometry"/>
        </mxCell>
        <mxCell id="ddIMEOaLe6l60YSl90KJ-14" value="&lt;span style=&quot;color: rgb(0 , 0 , 0)&quot;&gt;校验：标注师标注&lt;/span&gt;&lt;br style=&quot;color: rgb(0 , 0 , 0)&quot;&gt;&lt;span style=&quot;color: rgb(0 , 0 , 0)&quot;&gt;&amp;nbsp; &amp;nbsp; &amp;nbsp; &amp;nbsp; &amp;nbsp; &amp;nbsp;完全部文件&lt;/span&gt;" style="text;html=1;resizable=0;points=[];align=center;verticalAlign=middle;labelBackgroundColor=none;fontColor=#006633;rotation=323;" parent="ddIMEOaLe6l60YSl90KJ-6" vertex="1" connectable="0">
          <mxGeometry x="0.1142" y="-2" relative="1" as="geometry">
            <mxPoint x="-18" y="-11.5" as="offset"/>
          </mxGeometry>
        </mxCell>
        <mxCell id="PL_q6k4NAZZa_5ycfTa1-5" value="重标" style="ellipse;whiteSpace=wrap;html=1;aspect=fixed;fillColor=#008a00;strokeColor=#005700;fontColor=#ffffff;" parent="1" vertex="1">
          <mxGeometry x="473" y="228" width="56" height="56" as="geometry"/>
        </mxCell>
        <mxCell id="ddIMEOaLe6l60YSl90KJ-3" style="edgeStyle=none;rounded=0;orthogonalLoop=1;jettySize=auto;html=1;exitX=0;exitY=0;exitDx=0;exitDy=0;entryX=1;entryY=1;entryDx=0;entryDy=0;startArrow=none;startFill=0;endArrow=classic;endFill=1;strokeWidth=2;fillColor=#b1ddf0;strokeColor=#10739e;dashed=1;" parent="1" source="PL_q6k4NAZZa_5ycfTa1-6" target="PL_q6k4NAZZa_5ycfTa1-5" edge="1">
          <mxGeometry relative="1" as="geometry"/>
        </mxCell>
        <mxCell id="ddIMEOaLe6l60YSl90KJ-12" value="打回：审核完成不满足条件" style="text;html=1;resizable=0;points=[];align=center;verticalAlign=middle;labelBackgroundColor=none;rotation=38;" parent="ddIMEOaLe6l60YSl90KJ-3" vertex="1" connectable="0">
          <mxGeometry x="0.4105" relative="1" as="geometry">
            <mxPoint x="36.5" y="16" as="offset"/>
          </mxGeometry>
        </mxCell>
        <mxCell id="PL_q6k4NAZZa_5ycfTa1-6" value="审核完成" style="ellipse;whiteSpace=wrap;html=1;aspect=fixed;fillColor=#fff2cc;strokeColor=#d6b656;" parent="1" vertex="1">
          <mxGeometry x="727" y="432" width="56" height="56" as="geometry"/>
        </mxCell>
        <mxCell id="PL_q6k4NAZZa_5ycfTa1-25" style="rounded=0;orthogonalLoop=1;jettySize=auto;html=1;entryX=1;entryY=0.5;entryDx=0;entryDy=0;elbow=vertical;fillColor=#60a917;strokeColor=#2D7600;exitX=0;exitY=0;exitDx=0;exitDy=0;startArrow=classic;startFill=1;endArrow=none;endFill=0;strokeWidth=2;" parent="1" source="PL_q6k4NAZZa_5ycfTa1-7" target="PL_q6k4NAZZa_5ycfTa1-4" edge="1">
          <mxGeometry relative="1" as="geometry"/>
        </mxCell>
        <mxCell id="PL_q6k4NAZZa_5ycfTa1-38" value="提交：提交审核" style="text;html=1;resizable=0;points=[];align=center;verticalAlign=middle;labelBackgroundColor=none;rotation=19;" parent="PL_q6k4NAZZa_5ycfTa1-25" vertex="1" connectable="0">
          <mxGeometry x="-0.1622" relative="1" as="geometry">
            <mxPoint x="-1" y="12.5" as="offset"/>
          </mxGeometry>
        </mxCell>
        <mxCell id="PL_q6k4NAZZa_5ycfTa1-7" value="待审核" style="ellipse;whiteSpace=wrap;html=1;aspect=fixed;fillColor=#fff2cc;strokeColor=#d6b656;" parent="1" vertex="1">
          <mxGeometry x="638" y="97.5" width="56" height="56" as="geometry"/>
        </mxCell>
        <mxCell id="PL_q6k4NAZZa_5ycfTa1-15" style="rounded=0;orthogonalLoop=1;jettySize=auto;html=1;entryX=1;entryY=1;entryDx=0;entryDy=0;fillColor=#e3c800;strokeColor=#B09500;startArrow=classic;startFill=1;endArrow=none;endFill=0;strokeWidth=2;exitX=0.5;exitY=0;exitDx=0;exitDy=0;" parent="1" source="PL_q6k4NAZZa_5ycfTa1-13" target="PL_q6k4NAZZa_5ycfTa1-7" edge="1">
          <mxGeometry relative="1" as="geometry">
            <mxPoint x="769" y="250" as="sourcePoint"/>
          </mxGeometry>
        </mxCell>
        <mxCell id="HUFBvN-yXKdZDNxcfpUM-19" value="审核：审核员开始审&lt;br&gt;&amp;nbsp; &amp;nbsp; &amp;nbsp; &amp;nbsp; &amp;nbsp; &amp;nbsp;核第一个语音" style="text;html=1;resizable=0;points=[];align=center;verticalAlign=middle;labelBackgroundColor=none;rotation=56;" parent="PL_q6k4NAZZa_5ycfTa1-15" vertex="1" connectable="0">
          <mxGeometry x="0.2474" y="-1" relative="1" as="geometry">
            <mxPoint x="-7.5" y="25.5" as="offset"/>
          </mxGeometry>
        </mxCell>
        <mxCell id="PL_q6k4NAZZa_5ycfTa1-17" style="rounded=0;orthogonalLoop=1;jettySize=auto;html=1;fillColor=#e3c800;strokeColor=#B09500;entryX=1;entryY=0;entryDx=0;entryDy=0;exitX=0.393;exitY=1;exitDx=0;exitDy=0;strokeWidth=2;exitPerimeter=0;" parent="1" source="PL_q6k4NAZZa_5ycfTa1-6" target="HUFBvN-yXKdZDNxcfpUM-1" edge="1">
          <mxGeometry relative="1" as="geometry">
            <mxPoint x="542.7183220550878" y="704.1651617681018" as="targetPoint"/>
            <mxPoint x="769" y="468" as="sourcePoint"/>
          </mxGeometry>
        </mxCell>
        <mxCell id="PL_q6k4NAZZa_5ycfTa1-40" value="提交审核：审核员提&lt;br&gt;&amp;nbsp; &amp;nbsp; &amp;nbsp; &amp;nbsp; &amp;nbsp; &amp;nbsp; &amp;nbsp; &amp;nbsp;交审核" style="text;html=1;resizable=0;points=[];align=center;verticalAlign=middle;labelBackgroundColor=none;rotation=301;" parent="PL_q6k4NAZZa_5ycfTa1-17" vertex="1" connectable="0">
          <mxGeometry x="0.1769" relative="1" as="geometry">
            <mxPoint x="-13.5" y="-17.5" as="offset"/>
          </mxGeometry>
        </mxCell>
        <mxCell id="ddIMEOaLe6l60YSl90KJ-2" style="rounded=0;orthogonalLoop=1;jettySize=auto;html=1;entryX=0.5;entryY=0;entryDx=0;entryDy=0;startArrow=none;startFill=0;endArrow=classic;endFill=1;strokeWidth=2;fillColor=#e3c800;strokeColor=#B09500;" parent="1" source="PL_q6k4NAZZa_5ycfTa1-13" target="PL_q6k4NAZZa_5ycfTa1-6" edge="1">
          <mxGeometry relative="1" as="geometry"/>
        </mxCell>
        <mxCell id="ddIMEOaLe6l60YSl90KJ-11" value="校验：审核员审核&lt;br&gt;&amp;nbsp; &amp;nbsp; &amp;nbsp; &amp;nbsp; &amp;nbsp; &amp;nbsp;完全部文件" style="text;html=1;resizable=0;points=[];align=center;verticalAlign=middle;labelBackgroundColor=none;rotation=90;" parent="ddIMEOaLe6l60YSl90KJ-2" vertex="1" connectable="0">
          <mxGeometry x="-0.6106" y="-1" relative="1" as="geometry">
            <mxPoint x="-18" y="30" as="offset"/>
          </mxGeometry>
        </mxCell>
        <mxCell id="ddIMEOaLe6l60YSl90KJ-9" style="edgeStyle=none;rounded=0;orthogonalLoop=1;jettySize=auto;html=1;startArrow=none;startFill=0;endArrow=classic;endFill=1;entryX=1;entryY=0.5;entryDx=0;entryDy=0;strokeWidth=2;fillColor=#b1ddf0;strokeColor=#10739e;dashed=1;" parent="1" source="PL_q6k4NAZZa_5ycfTa1-13" target="PL_q6k4NAZZa_5ycfTa1-5" edge="1">
          <mxGeometry relative="1" as="geometry">
            <mxPoint x="568" y="280" as="targetPoint"/>
          </mxGeometry>
        </mxCell>
        <mxCell id="ddIMEOaLe6l60YSl90KJ-10" value="打回：审核达到阈值&lt;br&gt;&amp;nbsp; &amp;nbsp; &amp;nbsp; &amp;nbsp;可打回给标注师" style="text;html=1;resizable=0;points=[];align=center;verticalAlign=middle;labelBackgroundColor=none;rotation=6;" parent="ddIMEOaLe6l60YSl90KJ-9" vertex="1" connectable="0">
          <mxGeometry x="0.3174" y="-2" relative="1" as="geometry">
            <mxPoint x="21" y="-17.5" as="offset"/>
          </mxGeometry>
        </mxCell>
        <mxCell id="PL_q6k4NAZZa_5ycfTa1-13" value="审核中" style="ellipse;whiteSpace=wrap;html=1;aspect=fixed;fillColor=#fff2cc;strokeColor=#d6b656;" parent="1" vertex="1">
          <mxGeometry x="727" y="251" width="56" height="56" as="geometry"/>
        </mxCell>
        <mxCell id="PL_q6k4NAZZa_5ycfTa1-21" style="rounded=0;orthogonalLoop=1;jettySize=auto;html=1;entryX=0.5;entryY=1;entryDx=0;entryDy=0;fillColor=#d0cee2;strokeColor=#56517e;exitX=0;exitY=0;exitDx=0;exitDy=0;strokeWidth=2;" parent="1" source="PL_q6k4NAZZa_5ycfTa1-18" target="PL_q6k4NAZZa_5ycfTa1-20" edge="1">
          <mxGeometry relative="1" as="geometry"/>
        </mxCell>
        <mxCell id="PL_q6k4NAZZa_5ycfTa1-50" value="归档：审核员批次&lt;br&gt;归档任务&lt;br&gt;状态变更" style="text;html=1;resizable=0;points=[];align=center;verticalAlign=middle;labelBackgroundColor=none;rotation=57;" parent="PL_q6k4NAZZa_5ycfTa1-21" vertex="1" connectable="0">
          <mxGeometry x="0.2169" y="-1" relative="1" as="geometry">
            <mxPoint x="31" y="3.5" as="offset"/>
          </mxGeometry>
        </mxCell>
        <mxCell id="PL_q6k4NAZZa_5ycfTa1-23" style="rounded=0;orthogonalLoop=1;jettySize=auto;html=1;entryX=0;entryY=1;entryDx=0;entryDy=0;fillColor=#d0cee2;strokeColor=#56517e;strokeWidth=2;dashed=1;dashPattern=1 2;" parent="1" source="PL_q6k4NAZZa_5ycfTa1-18" target="PL_q6k4NAZZa_5ycfTa1-22" edge="1">
          <mxGeometry relative="1" as="geometry"/>
        </mxCell>
        <mxCell id="PL_q6k4NAZZa_5ycfTa1-49" value="打回：抽检完成后根据情况&lt;br&gt;&amp;nbsp; &amp;nbsp; &amp;nbsp; &amp;nbsp; &amp;nbsp; &amp;nbsp;打回批次，任务状态&lt;br&gt;变更" style="text;html=1;resizable=0;points=[];align=center;verticalAlign=middle;labelBackgroundColor=none;rotation=309;" parent="PL_q6k4NAZZa_5ycfTa1-23" vertex="1" connectable="0">
          <mxGeometry x="-0.4842" y="1" relative="1" as="geometry">
            <mxPoint x="57" y="-20.5" as="offset"/>
          </mxGeometry>
        </mxCell>
        <mxCell id="PL_q6k4NAZZa_5ycfTa1-18" value="抽检完成" style="ellipse;whiteSpace=wrap;html=1;aspect=fixed;fillColor=#e1d5e7;strokeColor=#9673a6;" parent="1" vertex="1">
          <mxGeometry x="172.5" y="571" width="56" height="56" as="geometry"/>
        </mxCell>
        <mxCell id="PL_q6k4NAZZa_5ycfTa1-20" value="已归档" style="ellipse;whiteSpace=wrap;html=1;aspect=fixed;fillColor=#e1d5e7;strokeColor=#9673a6;" parent="1" vertex="1">
          <mxGeometry x="95" y="432" width="56" height="56" as="geometry"/>
        </mxCell>
        <mxCell id="PL_q6k4NAZZa_5ycfTa1-24" style="rounded=0;orthogonalLoop=1;jettySize=auto;html=1;entryX=0;entryY=0;entryDx=0;entryDy=0;fillColor=#d0cee2;strokeColor=#56517e;strokeWidth=2;dashed=1;dashPattern=1 2;" parent="1" source="PL_q6k4NAZZa_5ycfTa1-22" edge="1" target="HUFBvN-yXKdZDNxcfpUM-1">
          <mxGeometry relative="1" as="geometry">
            <mxPoint x="741" y="432" as="targetPoint"/>
          </mxGeometry>
        </mxCell>
        <mxCell id="PL_q6k4NAZZa_5ycfTa1-51" value="校验：审核员审核&lt;br&gt;&amp;nbsp; &amp;nbsp; &amp;nbsp; &amp;nbsp; &amp;nbsp; 完所有语音" style="text;html=1;resizable=0;points=[];align=center;verticalAlign=middle;labelBackgroundColor=none;rotation=28;" parent="PL_q6k4NAZZa_5ycfTa1-24" vertex="1" connectable="0">
          <mxGeometry x="-0.4112" y="2" relative="1" as="geometry">
            <mxPoint x="10.5" y="-19.5" as="offset"/>
          </mxGeometry>
        </mxCell>
        <mxCell id="ddIMEOaLe6l60YSl90KJ-7" style="edgeStyle=none;rounded=0;orthogonalLoop=1;jettySize=auto;html=1;entryX=0;entryY=1;entryDx=0;entryDy=0;startArrow=none;startFill=0;endArrow=classic;endFill=1;strokeWidth=2;fillColor=#d0cee2;strokeColor=#56517e;dashed=1;dashPattern=1 2;" parent="1" source="PL_q6k4NAZZa_5ycfTa1-22" target="PL_q6k4NAZZa_5ycfTa1-5" edge="1">
          <mxGeometry relative="1" as="geometry"/>
        </mxCell>
        <mxCell id="ddIMEOaLe6l60YSl90KJ-13" value="打回：审核员打回给标注师" style="text;html=1;resizable=0;points=[];align=center;verticalAlign=middle;labelBackgroundColor=none;rotation=313;" parent="ddIMEOaLe6l60YSl90KJ-7" vertex="1" connectable="0">
          <mxGeometry x="-0.283" y="3" relative="1" as="geometry">
            <mxPoint x="0.5" y="-20.5" as="offset"/>
          </mxGeometry>
        </mxCell>
        <mxCell id="PL_q6k4NAZZa_5ycfTa1-22" value="重审" style="ellipse;whiteSpace=wrap;html=1;aspect=fixed;fillColor=#f0a30a;strokeColor=#BD7000;fontColor=#ffffff;" parent="1" vertex="1">
          <mxGeometry x="322" y="390" width="56" height="56" as="geometry"/>
        </mxCell>
        <mxCell id="PL_q6k4NAZZa_5ycfTa1-29" value="标注任务状态扭转" style="text;html=1;strokeColor=#b85450;fillColor=#f8cecc;align=center;verticalAlign=middle;whiteSpace=wrap;rounded=0;fontSize=14;" parent="1" vertex="1">
          <mxGeometry x="91" y="11" width="120" height="20" as="geometry"/>
        </mxCell>
        <mxCell id="PL_q6k4NAZZa_5ycfTa1-45" style="edgeStyle=none;rounded=0;orthogonalLoop=1;jettySize=auto;html=1;entryX=1;entryY=0.5;entryDx=0;entryDy=0;startArrow=none;startFill=0;endArrow=classic;endFill=1;fillColor=#d0cee2;strokeColor=#56517e;strokeWidth=2;" parent="1" source="PL_q6k4NAZZa_5ycfTa1-42" target="PL_q6k4NAZZa_5ycfTa1-43" edge="1">
          <mxGeometry relative="1" as="geometry"/>
        </mxCell>
        <mxCell id="PL_q6k4NAZZa_5ycfTa1-47" value="抽检：第一条语音&lt;br&gt;&amp;nbsp; &amp;nbsp; &amp;nbsp; &amp;nbsp;抽检开始" style="text;html=1;resizable=0;points=[];align=center;verticalAlign=middle;labelBackgroundColor=none;" parent="PL_q6k4NAZZa_5ycfTa1-45" vertex="1" connectable="0">
          <mxGeometry x="0.4" y="-1" relative="1" as="geometry">
            <mxPoint x="31" y="-21" as="offset"/>
          </mxGeometry>
        </mxCell>
        <mxCell id="PL_q6k4NAZZa_5ycfTa1-42" value="待抽检" style="ellipse;whiteSpace=wrap;html=1;aspect=fixed;fillColor=#e1d5e7;strokeColor=#9673a6;" parent="1" vertex="1">
          <mxGeometry x="508" y="654" width="56" height="56" as="geometry"/>
        </mxCell>
        <mxCell id="PL_q6k4NAZZa_5ycfTa1-46" style="edgeStyle=none;rounded=0;orthogonalLoop=1;jettySize=auto;html=1;entryX=1;entryY=1;entryDx=0;entryDy=0;startArrow=none;startFill=0;endArrow=classic;endFill=1;fillColor=#d0cee2;strokeColor=#56517e;strokeWidth=2;exitX=0;exitY=0.5;exitDx=0;exitDy=0;" parent="1" source="PL_q6k4NAZZa_5ycfTa1-43" target="PL_q6k4NAZZa_5ycfTa1-18" edge="1">
          <mxGeometry relative="1" as="geometry"/>
        </mxCell>
        <mxCell id="PL_q6k4NAZZa_5ycfTa1-48" value="提交：抽检员提交&lt;br&gt;任务&amp;nbsp;" style="text;html=1;resizable=0;points=[];align=center;verticalAlign=middle;labelBackgroundColor=none;rotation=37;" parent="PL_q6k4NAZZa_5ycfTa1-46" vertex="1" connectable="0">
          <mxGeometry x="0.2796" relative="1" as="geometry">
            <mxPoint x="30" y="-13.5" as="offset"/>
          </mxGeometry>
        </mxCell>
        <mxCell id="PL_q6k4NAZZa_5ycfTa1-43" value="抽检中" style="ellipse;whiteSpace=wrap;html=1;aspect=fixed;fillColor=#e1d5e7;strokeColor=#9673a6;" parent="1" vertex="1">
          <mxGeometry x="303" y="652" width="56" height="56" as="geometry"/>
        </mxCell>
        <mxCell id="PL_q6k4NAZZa_5ycfTa1-53" style="edgeStyle=none;rounded=0;orthogonalLoop=1;jettySize=auto;html=1;exitX=1;exitY=0.5;exitDx=0;exitDy=0;startArrow=none;startFill=0;endArrow=classic;endFill=1;" parent="1" edge="1">
          <mxGeometry relative="1" as="geometry">
            <mxPoint x="142" y="639" as="sourcePoint"/>
            <mxPoint x="142" y="639" as="targetPoint"/>
          </mxGeometry>
        </mxCell>
        <mxCell id="PL_q6k4NAZZa_5ycfTa1-54" value="标注" style="rounded=1;whiteSpace=wrap;html=1;align=center;fillColor=#d5e8d4;strokeColor=#82b366;" parent="1" vertex="1">
          <mxGeometry x="108" y="637" width="58" height="20" as="geometry"/>
        </mxCell>
        <mxCell id="PL_q6k4NAZZa_5ycfTa1-55" value="审核" style="rounded=1;whiteSpace=wrap;html=1;align=center;fillColor=#fff2cc;strokeColor=#d6b656;" parent="1" vertex="1">
          <mxGeometry x="108" y="669" width="58" height="20" as="geometry"/>
        </mxCell>
        <mxCell id="PL_q6k4NAZZa_5ycfTa1-56" value="抽检" style="rounded=1;whiteSpace=wrap;html=1;align=center;fillColor=#e1d5e7;strokeColor=#9673a6;" parent="1" vertex="1">
          <mxGeometry x="109" y="697" width="58" height="20" as="geometry"/>
        </mxCell>
        <mxCell id="PL_q6k4NAZZa_5ycfTa1-57" value="&lt;b&gt;&lt;span&gt;阶段色标&lt;/span&gt;&lt;/b&gt;" style="text;html=1;strokeColor=none;fillColor=none;align=center;verticalAlign=middle;whiteSpace=wrap;rounded=0;horizontal=0;rotation=90;fontStyle=0" parent="1" vertex="1">
          <mxGeometry x="68" y="659" width="50" height="20" as="geometry"/>
        </mxCell>
        <mxCell id="HUFBvN-yXKdZDNxcfpUM-2" style="rounded=0;orthogonalLoop=1;jettySize=auto;html=1;entryX=1;entryY=0.5;entryDx=0;entryDy=0;exitX=0;exitY=1;exitDx=0;exitDy=0;strokeWidth=2;fillColor=#d0cee2;strokeColor=#56517e;" parent="1" source="HUFBvN-yXKdZDNxcfpUM-1" target="PL_q6k4NAZZa_5ycfTa1-42" edge="1">
          <mxGeometry relative="1" as="geometry"/>
        </mxCell>
        <mxCell id="HUFBvN-yXKdZDNxcfpUM-3" value="创建抽检任务：&lt;br&gt;当选择了&lt;br&gt;该任务为&lt;br&gt;抽检任务" style="text;html=1;resizable=0;points=[];align=center;verticalAlign=middle;labelBackgroundColor=none;rotation=326;" parent="HUFBvN-yXKdZDNxcfpUM-2" vertex="1" connectable="0">
          <mxGeometry x="0.1892" y="-3" relative="1" as="geometry">
            <mxPoint x="-2" y="-38" as="offset"/>
          </mxGeometry>
        </mxCell>
        <mxCell id="HUFBvN-yXKdZDNxcfpUM-1" value="已提交审核" style="ellipse;whiteSpace=wrap;html=1;aspect=fixed;fillColor=#e1d5e7;strokeColor=#9673a6;" parent="1" vertex="1">
          <mxGeometry x="649" y="571" width="56" height="56" as="geometry"/>
        </mxCell>
        <mxCell id="HUFBvN-yXKdZDNxcfpUM-4" value="1.抽检批次创建时，抽检任务一步创建，需要等抽检任务创建成功时，更新状态&lt;br&gt;2.&lt;font color=&quot;#ff0000&quot;&gt;如果抽检任务全不包含标注任务，抽检任务完成时，未包含的标注任务状态随之更新&lt;/font&gt;" style="shape=callout;whiteSpace=wrap;html=1;perimeter=calloutPerimeter;position2=0.93;align=left;fillColor=#fad7ac;strokeColor=#b46504;" parent="1" vertex="1">
          <mxGeometry x="350" y="510" width="220" height="110" as="geometry"/>
        </mxCell>
        <mxCell id="HUFBvN-yXKdZDNxcfpUM-5" value="重新标注时，状态不变更。" style="shape=callout;whiteSpace=wrap;html=1;perimeter=calloutPerimeter;align=left;position2=1;fillColor=#fad7ac;strokeColor=#b46504;" parent="1" vertex="1">
          <mxGeometry x="202" y="292" width="120" height="80" as="geometry"/>
        </mxCell>
        <mxCell id="HUFBvN-yXKdZDNxcfpUM-6" value="重标时不更新标注任务状态。" style="shape=callout;whiteSpace=wrap;html=1;perimeter=calloutPerimeter;align=left;position2=1;fillColor=#fad7ac;strokeColor=#b46504;" parent="1" vertex="1">
          <mxGeometry x="331" y="170" width="120" height="80" as="geometry"/>
        </mxCell>
        <mxCell id="ddIMEOaLe6l60YSl90KJ-5" style="edgeStyle=none;rounded=0;orthogonalLoop=1;jettySize=auto;html=1;entryX=1;entryY=0;entryDx=0;entryDy=0;startArrow=none;startFill=0;endArrow=classic;endFill=1;" parent="1" source="PL_q6k4NAZZa_5ycfTa1-1" target="PL_q6k4NAZZa_5ycfTa1-1" edge="1">
          <mxGeometry relative="1" as="geometry"/>
        </mxCell>
        <mxCell id="YWXzUzA2li_S0hEGCGYV-14" style="rounded=0;orthogonalLoop=1;jettySize=auto;html=1;entryX=0;entryY=1;entryDx=0;entryDy=0;fillColor=#60a917;strokeColor=#2D7600;exitX=0.5;exitY=0;exitDx=0;exitDy=0;strokeWidth=2;" parent="1" source="PL_q6k4NAZZa_5ycfTa1-1" target="PL_q6k4NAZZa_5ycfTa1-3" edge="1">
          <mxGeometry relative="1" as="geometry">
            <mxPoint x="99" y="256" as="sourcePoint"/>
            <mxPoint x="210" y="80" as="targetPoint"/>
          </mxGeometry>
        </mxCell>
        <mxCell id="YWXzUzA2li_S0hEGCGYV-15" value="标注：标注师标注&lt;br&gt;&amp;nbsp; &amp;nbsp; &amp;nbsp; &amp;nbsp; &amp;nbsp; &amp;nbsp;第一个语音" style="text;html=1;resizable=0;points=[];align=center;verticalAlign=middle;labelBackgroundColor=none;rotation=-55;" parent="YWXzUzA2li_S0hEGCGYV-14" vertex="1" connectable="0">
          <mxGeometry x="-0.0188" y="2" relative="1" as="geometry">
            <mxPoint x="16.5" y="15" as="offset"/>
          </mxGeometry>
        </mxCell>
        <mxCell id="YWXzUzA2li_S0hEGCGYV-28" value="" style="ellipse;whiteSpace=wrap;html=1;aspect=fixed;fillColor=#e51400;strokeColor=#B20000;fontColor=#ffffff;" parent="1" vertex="1">
          <mxGeometry x="93" y="76.5" width="21" height="21" as="geometry"/>
        </mxCell>
      </root>
    </mxGraphModel>
  </diagram>
</mxfile>
